<svg width="21" height="45" viewBox="0 0 21 45" fill="none" xmlns="http://www.w3.org/2000/svg">
<path d="M0.350153 44.0508C0.157186 44.0508 0.000333622 43.8943 0.00479699 43.7014C0.0555793 41.5065 0.584496 39.338 1.56555 37.3078C2.59863 35.1701 4.11284 33.2276 6.02172 31.5914C7.9306 29.9553 10.1968 28.6574 12.6908 27.7719C15.0773 26.9246 17.6276 26.4708 20.2082 26.4332C20.4012 26.4303 20.5576 26.587 20.5576 26.78L20.5576 34.8913C20.5576 35.0843 20.4011 35.2402 20.2083 35.2458C18.9777 35.2817 17.7636 35.5068 16.6242 35.9113C15.3772 36.3541 14.2441 37.003 13.2897 37.8211C12.3352 38.6392 11.5781 39.6104 11.0616 40.6793C10.5971 41.6405 10.3353 42.6638 10.2873 43.7015C10.2783 43.8943 10.1228 44.0508 9.92979 44.0508H0.350153Z" fill="white"/>
<path d="M20.2075 -1.76659e-06C20.4004 -1.78346e-06 20.5573 0.156464 20.5528 0.34938C20.502 2.54429 19.9731 4.71282 18.9921 6.74295C17.959 8.88072 16.4448 10.8232 14.5359 12.4593C12.627 14.0955 10.3608 15.3934 7.86677 16.2789C5.48035 17.1262 2.93 17.58 0.349407 17.6176C0.156461 17.6204 1.53471e-06 17.4637 1.52768e-06 17.2708L1.23221e-06 9.15948C1.22518e-06 8.96652 0.156473 8.81062 0.349358 8.805C1.57997 8.76912 2.79404 8.54397 3.93339 8.13946C5.18042 7.69671 6.31351 7.04776 7.26795 6.22967C8.22239 5.41158 8.97949 4.44036 9.49603 3.37147C9.96053 2.41027 10.2223 1.38702 10.2704 0.349278C10.2793 0.156517 10.4349 -9.12245e-07 10.6278 -9.29114e-07L20.2075 -1.76659e-06Z" fill="white"/>
<rect width="20.5569" height="8.81008" transform="matrix(-1 0 0 1 20.5576 17.6191)" fill="white"/>
</svg>
